<?xml version="1.0" standalone="no"?>
<!DOCTYPE svg PUBLIC "-//W3C//DTD SVG 20010904//EN"
 "http://www.w3.org/TR/2001/REC-SVG-20010904/DTD/svg10.dtd">
<svg version="1.0" xmlns="http://www.w3.org/2000/svg"
 width="819.000000pt" height="819.000000pt" viewBox="0 0 819.000000 819.000000"
 preserveAspectRatio="xMidYMid meet">

<g transform="translate(0.000000,819.000000) scale(0.100000,-0.100000)"
fill="#000000" stroke="none">
<path d="M3860 8184 c-1028 -71 -1949 -485 -2659 -1195 -661 -661 -1066 -1505
-1177 -2454 -25 -209 -25 -671 0 -880 35 -301 93 -564 185 -845 471 -1425
1679 -2475 3161 -2744 259 -47 413 -60 725 -60 490 0 842 57 1300 209 1417
471 2457 1674 2729 3155 47 257 60 413 60 725 0 312 -13 468 -60 725 -152 829
-541 1573 -1130 2164 -663 664 -1510 1072 -2454 1181 -128 15 -563 27 -680 19z
m396 -1114 c466 -37 943 -178 1281 -381 134 -81 180 -152 149 -232 -22 -58
-74 -92 -140 -92 -44 0 -66 9 -161 62 -212 121 -428 205 -688 268 -238 59
-339 70 -642 69 -290 0 -388 -11 -635 -69 -324 -78 -667 -235 -932 -428 -559
-408 -929 -960 -1063 -1587 -35 -167 -50 -205 -91 -236 -40 -31 -102 -41 -143
-24 -17 7 -43 29 -58 49 -25 32 -28 44 -27 106 1 39 11 113 22 166 119 555
365 1011 762 1410 368 370 826 652 1275 787 387 116 745 159 1091 132z m-94
-581 c29 -6 85 -27 123 -47 63 -32 116 -82 510 -474 l440 -438 -125 -125 -125
-125 -390 389 c-435 434 -426 426 -560 426 -50 -1 -84 -7 -118 -22 -48 -22
-344 -305 -1142 -1092 -170 -169 -419 -414 -553 -545 -134 -132 -250 -253
-259 -270 -9 -16 -18 -58 -21 -93 -9 -112 2 -129 251 -380 195 -197 232 -243
196 -243 -5 0 -18 9 -29 20 -11 11 -20 16 -20 12 0 -4 5 -13 12 -20 6 -6 13
-21 15 -33 3 -18 -1 -20 -19 -15 -13 3 -32 6 -43 7 -11 1 -4 5 15 9 34 7 34 7
-12 9 -42 1 -48 4 -49 24 0 12 -3 16 -6 10 -2 -7 -9 -13 -15 -13 -6 0 -7 7 -4
16 4 10 1 14 -6 12 -7 -3 -14 -14 -16 -26 -2 -12 -10 -22 -18 -22 -8 0 -12 4
-9 10 4 6 -11 7 -39 4 -31 -5 -46 -3 -46 5 0 6 5 11 12 11 6 0 9 2 7 5 -3 2
-15 2 -27 -2 -21 -5 -22 -7 -6 -24 10 -11 13 -25 9 -39 l-7 -22 -15 22 c-10
13 -21 19 -33 15 -10 -3 -21 -1 -25 5 -3 5 -12 10 -18 10 -7 0 1 -12 16 -25
15 -14 24 -25 20 -25 -4 0 -101 92 -214 203 -181 177 -211 210 -238 268 -66
143 -66 251 1 387 46 93 68 117 528 567 135 132 517 508 849 835 769 757 742
732 827 781 114 65 246 85 376 58z m2336 -382 c64 -42 95 -97 100 -173 5 -68
-5 -105 -44 -163 -39 -59 -2366 -2382 -2407 -2402 -21 -11 -62 -24 -93 -30
-65 -12 -153 7 -223 48 -57 33 -527 506 -552 555 -29 56 -33 108 -15 172 31
105 120 176 221 176 85 0 126 -27 301 -201 l161 -159 49 0 48 0 406 403 c1019
1012 1697 1680 1776 1750 56 50 78 57 160 54 58 -2 78 -7 112 -30z m-2369
-458 c90 -19 163 -78 413 -333 l238 -241 -102 -102 c-56 -56 -112 -104 -124
-107 -42 -11 -79 15 -224 158 -80 79 -161 152 -180 162 -53 28 -171 26 -229
-5 -27 -14 -170 -147 -365 -340 -177 -174 -366 -359 -421 -411 -161 -153 -255
-252 -276 -292 -23 -46 -25 -134 -4 -186 11 -24 107 -129 281 -303 145 -146
261 -269 257 -274 -4 -4 -3 -5 3 -2 6 3 29 -13 52 -36 32 -32 39 -45 31 -57
-8 -12 -9 -11 -7 5 2 12 -2 19 -9 17 -7 -1 -13 4 -13 12 0 8 -7 17 -16 20 -9
4 -13 2 -8 -5 4 -6 0 -15 -7 -20 -19 -12 -29 -11 -29 2 0 5 5 7 10 4 6 -3 10
-2 10 4 0 13 -35 32 -44 24 -3 -4 -20 7 -38 23 -17 16 -28 23 -24 17 4 -7 2
-13 -4 -13 -7 0 -10 -6 -7 -13 3 -8 -1 -14 -9 -14 -9 0 -13 6 -9 14 3 11 -1
13 -15 8 -15 -5 -23 0 -29 17 -9 20 -16 11 -12 -14 0 -4 -6 -5 -14 -2 -18 7
-19 21 -2 27 6 2 9 8 5 12 -4 4 -15 2 -23 -5 -12 -10 -21 -10 -38 -2 -12 6
-53 13 -90 16 -73 5 -90 11 -67 26 13 8 12 10 -2 10 -10 0 -18 -7 -18 -15 0
-8 -4 -15 -10 -15 -5 0 -10 5 -10 11 0 8 -4 8 -14 0 -7 -6 -22 -9 -32 -5 -17
5 -17 4 -3 -8 9 -7 22 -24 29 -37 9 -19 3 -15 -26 13 -32 31 -36 39 -24 48 12
8 11 9 -4 4 -22 -7 -59 21 -49 37 3 5 2 7 -4 4 -5 -3 -84 69 -176 161 -140
141 -171 177 -197 234 -45 97 -51 188 -18 285 27 77 88 164 159 228 85 75 338
322 744 724 226 224 430 423 455 443 105 83 220 113 339 87z m2641 -349 c60
-42 104 -139 163 -355 76 -277 89 -397 48 -454 -43 -60 -128 -78 -189 -41 -42
26 -69 71 -82 140 -35 179 -78 334 -145 519 -30 84 -28 122 7 166 45 58 136
69 198 25z m-394 -820 c165 -167 214 -262 214 -416 0 -139 -56 -240 -216 -394
-216 -206 -246 -234 -235 -213 6 12 16 25 21 28 16 10 12 25 -5 19 -8 -4 -15
-1 -15 6 0 8 9 11 24 8 14 -3 31 -1 38 3 7 5 -18 7 -56 5 -43 -3 -64 -1 -55 5
17 10 -1 12 -26 3 -13 -5 -14 -9 -4 -15 8 -4 10 -11 6 -16 -4 -4 -16 -2 -27 5
-14 9 -20 9 -24 -1 -4 -7 -5 -3 -3 9 5 26 -29 26 -48 0 -10 -13 -14 -14 -18
-4 -4 8 -8 5 -12 -9 -9 -27 -20 -30 -29 -7 -4 10 -14 14 -26 11 -11 -3 -20 -4
-20 -2 0 2 -3 11 -7 21 -4 12 -3 15 5 10 17 -11 15 9 -3 24 -13 11 -14 10 -9
-3 5 -13 -1 -16 -31 -13 -27 2 -39 -2 -46 -17 -6 -10 -13 -16 -17 -13 -9 9 50
66 61 59 6 -3 7 -1 4 4 -4 6 69 84 161 174 100 98 176 180 188 204 26 55 26
165 -1 220 -10 22 -74 97 -142 166 l-123 126 122 121 123 121 54 -52 c30 -29
109 -108 177 -177z m-778 -186 c70 -74 97 -142 97 -245 0 -78 -3 -91 -37 -160
-33 -68 -55 -92 -240 -269 -112 -107 -215 -204 -228 -214 -14 -11 -8 -2 13 18
28 28 36 41 28 49 -8 8 -11 6 -11 -6 0 -16 -12 -22 -35 -17 -5 1 -17 2 -27 3
-9 1 -15 4 -13 7 2 3 0 12 -6 20 -7 12 -9 12 -9 -4 0 -12 -5 -16 -15 -13 -8 4
-17 2 -20 -2 -2 -5 -15 -11 -27 -14 -22 -6 -22 -5 -4 8 11 8 18 17 15 19 -9 8
-94 -9 -93 -19 1 -11 -21 -35 -32 -35 -3 0 -2 6 4 13 9 10 2 13 -32 13 -57 1
-76 9 -76 34 0 23 -29 27 -48 8 -18 -18 -14 -32 5 -17 15 13 15 12 2 -8 -8
-14 -16 -18 -20 -11 -4 6 -13 7 -20 3 -8 -5 2 8 20 28 19 21 44 37 55 37 15 0
17 3 8 8 -11 8 130 155 315 327 67 62 97 114 108 185 6 41 18 56 133 173 70
70 131 127 136 127 5 0 29 -21 54 -46z m236 -775 c-3 -5 -14 -7 -24 -4 -12 4
-20 0 -23 -12 -4 -14 -5 -14 -6 4 -1 15 6 23 22 25 27 5 39 0 31 -13z m169
-19 c4 -17 3 -19 -9 -9 -8 6 -14 18 -14 26 0 20 16 8 23 -17z m121 5 c-4 -8
-1 -15 7 -15 7 0 10 -2 7 -5 -3 -3 -12 -3 -21 1 -16 6 -13 34 4 34 4 0 6 -7 3
-15z m780 -15 c42 -37 60 -88 52 -144 -3 -22 -25 -102 -50 -176 -209 -641
-646 -1207 -1222 -1583 -224 -147 -563 -304 -784 -366 -105 -29 -378 -87 -485
-103 -59 -8 -183 -13 -360 -13 -234 1 -288 4 -405 24 -473 80 -857 223 -1202
447 -495 321 -892 770 -1123 1270 -52 113 -124 299 -142 368 -17 62 -17 63 8
112 20 40 32 52 70 68 99 40 172 -9 223 -150 159 -440 374 -770 715 -1096 128
-123 207 -186 356 -285 413 -274 911 -439 1410 -468 229 -13 591 36 860 117
619 186 1134 571 1502 1123 122 183 238 437 328 715 43 133 78 170 161 170 45
0 59 -5 88 -30z m-1204 -24 c0 -2 -8 -10 -17 -17 -16 -13 -17 -12 -4 4 13 16
21 21 21 13z m-3220 -63 c25 -26 34 -39 20 -28 -13 11 -30 27 -37 35 -6 8 -15
12 -19 8 -4 -4 -1 -14 6 -23 17 -20 3 -19 -17 1 -14 13 -14 17 -2 25 12 8 12
10 -1 19 -8 5 -10 10 -5 10 6 0 31 -21 55 -47z m2640 37 c0 -5 -8 -10 -17 -10
-15 0 -16 2 -3 10 19 12 20 12 20 0z m44 -11 c4 6 12 11 19 11 7 0 5 -7 -5
-16 -17 -17 -38 -12 -38 9 0 8 3 8 9 -2 6 -9 11 -10 15 -2z m-424 -3 c0 -2 -8
-10 -17 -17 -16 -13 -17 -12 -4 4 13 16 21 21 21 13z m1370 -11 c0 -2 -10 -9
-22 -15 -22 -11 -22 -10 -4 4 21 17 26 19 26 11z m-1030 -15 c0 -5 -4 -10 -10
-10 -5 0 -10 5 -10 10 0 6 5 10 10 10 6 0 10 -4 10 -10z m80 -24 c0 -2 -8 -10
-17 -17 -16 -13 -17 -12 -4 4 13 16 21 21 21 13z m-2193 -21 c0 -8 -4 -12 -9
-9 -5 3 -6 10 -3 15 9 13 12 11 12 -6z m273 -25 c0 -5 -2 -10 -4 -10 -3 0 -8
5 -11 10 -3 6 -1 10 4 10 6 0 11 -4 11 -10z m281 -67 c13 -16 12 -17 -3 -4
-10 7 -18 15 -18 17 0 8 8 3 21 -13z"/>
<path d="M1915 3510 c3 -5 8 -10 11 -10 2 0 4 5 4 10 0 6 -5 10 -11 10 -5 0
-7 -4 -4 -10z"/>
<path d="M1940 3490 c0 -6 7 -10 15 -10 8 0 15 2 15 4 0 2 -7 6 -15 10 -8 3
-15 1 -15 -4z"/>
<path d="M2370 3475 c7 -9 15 -13 17 -11 7 7 -7 26 -19 26 -6 0 -6 -6 2 -15z"/>
<path d="M1972 3459 c3 -8 12 -13 21 -11 8 1 18 -2 22 -8 9 -14 22 -12 28 4 4
11 -2 14 -22 14 -16 -1 -34 3 -41 7 -8 5 -11 3 -8 -6z"/>
<path d="M2062 3438 c5 -15 28 -23 28 -10 0 5 -7 13 -16 16 -10 4 -14 1 -12
-6z"/>
<path d="M2850 3470 c0 -5 5 -10 11 -10 5 0 7 5 4 10 -3 6 -8 10 -11 10 -2 0
-4 -4 -4 -10z"/>
<path d="M3240 3380 c0 -5 5 -10 10 -10 6 0 10 5 10 10 0 6 -4 10 -10 10 -5 0
-10 -4 -10 -10z"/>
<path d="M5905 3524 c9 -9 19 -13 23 -10 3 4 0 11 -8 16 -24 15 -33 11 -15 -6z"/>
<path d="M4881 3556 c-9 -11 -9 -16 1 -22 7 -4 10 -4 6 1 -4 4 -3 14 3 22 6 7
9 13 6 13 -2 0 -10 -6 -16 -14z"/>
<path d="M5310 3550 c-9 -6 -10 -10 -3 -10 6 0 15 5 18 10 8 12 4 12 -15 0z"/>
<path d="M5268 3507 c-15 -19 -19 -20 -28 -7 -11 18 -14 1 -2 -18 6 -9 16 -4
37 18 16 16 25 30 19 30 -5 -1 -17 -11 -26 -23z"/>
<path d="M5100 3490 c0 -5 5 -10 11 -10 5 0 7 5 4 10 -3 6 -8 10 -11 10 -2 0
-4 -4 -4 -10z"/>
</g>
</svg>
